<?xml version="1.0" encoding="UTF-8"?>
<!-- Generator: Adobe Illustrator 16.0.4, SVG Export Plug-In . SVG Version: 6.00 Build 0)  -->
<!DOCTYPE svg PUBLIC "-//W3C//DTD SVG 1.1//EN" "http://www.w3.org/Graphics/SVG/1.1/DTD/svg11.dtd">
<svg version="1.1" xmlns="http://www.w3.org/2000/svg" xmlns:xlink="http://www.w3.org/1999/xlink" x="0px" y="0px" width="311px" height="131px" viewBox="0 0 311 131" enable-background="new 0 0 311 131" xml:space="preserve">
<g id="Layer_3">
	<g>
		<path fill="#C6FFC6" stroke="#000000" stroke-miterlimit="10" d="M61.75,30.67v50.75c0,3.313-11.51,6-25.708,6    s-25.708-2.687-25.708-6V30.67"/>
		<ellipse fill="#E1FFE1" stroke="#000000" stroke-miterlimit="10" cx="36.042" cy="30.67" rx="25.708" ry="6"/>
	</g>
	<g>
		<path fill="#C6FFC6" stroke="#000000" stroke-miterlimit="10" d="M121.324,30.67v50.75c0,3.313-11.51,6-25.708,6    s-25.708-2.687-25.708-6V30.67"/>
		<ellipse fill="#E1FFE1" stroke="#000000" stroke-miterlimit="10" cx="95.615" cy="30.67" rx="25.708" ry="6"/>
	</g>
	<g>
		<path fill="#C6FFC6" stroke="#000000" stroke-miterlimit="10" d="M180.897,30.67v50.75c0,3.313-11.51,6-25.709,6    c-14.198,0-25.708-2.687-25.708-6V30.67"/>
		<ellipse fill="#E1FFE1" stroke="#000000" stroke-miterlimit="10" cx="155.189" cy="30.67" rx="25.708" ry="6"/>
	</g>
	<g>
		<path fill="#C6FFC6" stroke="#000000" stroke-miterlimit="10" d="M240.472,30.67v50.75c0,3.313-11.51,6-25.709,6    c-14.197,0-25.708-2.687-25.708-6V30.67"/>
		<ellipse fill="#E1FFE1" stroke="#000000" stroke-miterlimit="10" cx="214.763" cy="30.67" rx="25.708" ry="6"/>
	</g>
	<g>
		<path fill="#C6FFC6" stroke="#000000" stroke-miterlimit="10" d="M300.046,30.67v50.75c0,3.313-11.51,6-25.709,6    c-14.197,0-25.709-2.687-25.709-6V30.67"/>
		<ellipse fill="#E1FFE1" stroke="#000000" stroke-miterlimit="10" cx="274.337" cy="30.67" rx="25.709" ry="6"/>
	</g>
</g>
<g id="text">
	<text transform="matrix(1 0 0 1 158.4414 123.5049)" fill="#FF6600" font-family="'LiberationSans'" font-size="18">29</text>
	<text transform="matrix(1 0 0 1 123.4077 123.5049)" fill="#FF6600" font-family="'LiberationSans'" font-size="18">25</text>
	<text transform="matrix(1 0 0 1 23.311 123.5049)" fill="#990000" font-family="'LiberationSans'" font-size="18">3</text>
	<text transform="matrix(1 0 0 1 263.5439 123.5049)" fill="#000099" font-family="'LiberationSans'" font-size="18">49</text>
	<text transform="matrix(1 0 0 1 58.3452 123.5049)" fill="#990000" font-family="'LiberationSans'" font-size="18">9</text>
	<text transform="matrix(1 0 0 1 193.4756 123.5049)" fill="#336633" font-family="'LiberationSans'" font-size="18">37</text>
	<text transform="matrix(1 0 0 1 88.3735 123.5049)" fill="#FF6600" font-family="'LiberationSans'" font-size="18">21</text>
	<text transform="matrix(1 0 0 1 228.5098 123.5049)" fill="#000099" font-family="'LiberationSans'" font-size="18">43</text>
	<g>
		<text transform="matrix(1 0 0 1 154.0806 82.5049)" fill="#FF6600" font-family="'LiberationSans'" font-size="18">29</text>
	</g>
	<g>
		<text transform="matrix(1 0 0 1 145.6514 67.5879)" fill="#FF6600" font-family="'LiberationSans'" font-size="18">25</text>
	</g>
	<g>
		<text transform="matrix(1 0 0 1 23.9771 60.1704)" fill="#990000" font-family="'LiberationSans'" font-size="18">3</text>
	</g>
	<g>
		<text transform="matrix(1 0 0 1 268.877 75.0049)" fill="#000099" font-family="'LiberationSans'" font-size="18">49</text>
	</g>
	<g>
		<text transform="matrix(1 0 0 1 35.6191 76.1719)" fill="#990000" font-family="'LiberationSans'" font-size="18">9</text>
	</g>
	<g>
		<text transform="matrix(1 0 0 1 204.8525 67.8389)" fill="#336633" font-family="'LiberationSans'" font-size="18">37</text>
	</g>
	<g>
		<text transform="matrix(1 0 0 1 133.9238 52.8384)" fill="#FF6600" font-family="'LiberationSans'" font-size="18">21</text>
	</g>
	<g>
		<text transform="matrix(1 0 0 1 259.4941 58.6714)" fill="#000099" font-family="'LiberationSans'" font-size="18">43</text>
	</g>
	<text transform="matrix(1 0 0 1 257.6523 16.3374)" font-family="'LiberationSans'" font-size="12">40–49</text>
	<text transform="matrix(1 0 0 1 198.0781 16.3374)" font-family="'LiberationSans'" font-size="12">30–39</text>
	<text transform="matrix(1 0 0 1 138.5044 16.3374)" font-family="'LiberationSans'" font-size="12">20–29</text>
	<text transform="matrix(1 0 0 1 78.9307 16.3374)" font-family="'LiberationSans'" font-size="12">10–19</text>
	<text transform="matrix(1 0 0 1 26.0308 16.3374)" font-family="'LiberationSans'" font-size="12">0–9</text>
</g>
</svg>